<svg width="16" height="19" viewBox="0 0 16 19" fill="none" xmlns="http://www.w3.org/2000/svg">
<path fill-rule="evenodd" clip-rule="evenodd" d="M3.68414 3.68414C4.76248 2.6058 6.22502 2 7.75002 2C9.27502 2 10.7376 2.6058 11.8159 3.68414C12.8942 4.76248 13.5 6.22502 13.5 7.75002C13.5 9.97308 12.0468 12.1668 10.3991 13.906C9.59566 14.7541 8.78885 15.4492 8.18178 15.9326C8.02224 16.0596 7.87705 16.1716 7.75002 16.2675C7.62298 16.1716 7.4778 16.0596 7.31825 15.9326C6.71118 15.4492 5.90437 14.7541 5.10096 13.906C3.45324 12.1668 2 9.97308 2 7.75002C2 6.22502 2.6058 4.76248 3.68414 3.68414ZM7.1948 18.3317C7.19507 18.3319 7.19532 18.3321 7.75002 17.5L7.19532 18.3321C7.53122 18.556 7.96882 18.556 8.30472 18.3321L7.75002 17.5C8.30472 18.3321 8.30496 18.3319 8.30523 18.3317L8.3059 18.3313L8.30771 18.3301L8.31315 18.3264L8.33124 18.3142C8.34646 18.3039 8.36791 18.2892 8.39519 18.2703C8.44974 18.2325 8.52764 18.1778 8.62555 18.1071C8.82127 17.9658 9.09756 17.76 9.42763 17.4972C10.0862 16.9728 10.9669 16.2147 11.851 15.2815C13.5783 13.4583 15.5 10.777 15.5 7.75002C15.5 5.69458 14.6835 3.72334 13.2301 2.26993C11.7767 0.816517 9.80545 0 7.75002 0C5.69458 0 3.72334 0.816517 2.26993 2.26993C0.816517 3.72334 0 5.69458 0 7.75002C0 10.777 1.92177 13.4583 3.64906 15.2815C4.53315 16.2147 5.41385 16.9728 6.0724 17.4972C6.40247 17.76 6.67876 17.9658 6.87449 18.1071C6.9724 18.1778 7.05029 18.2325 7.10484 18.2703C7.13212 18.2892 7.15358 18.3039 7.16879 18.3142L7.18688 18.3264L7.19233 18.3301L7.19413 18.3313L7.1948 18.3317ZM6.50001 7.75002C6.50001 7.05966 7.05966 6.50001 7.75002 6.50001C8.44038 6.50001 9.00002 7.05966 9.00002 7.75002C9.00002 8.44038 8.44038 9.00002 7.75002 9.00002C7.05966 9.00002 6.50001 8.44038 6.50001 7.75002ZM7.75002 4.50001C5.95509 4.50001 4.50001 5.95509 4.50001 7.75002C4.50001 9.54495 5.95509 11 7.75002 11C9.54495 11 11 9.54495 11 7.75002C11 5.95509 9.54495 4.50001 7.75002 4.50001Z" fill="white"/>
</svg>
