<svg width="34" height="34" viewBox="0 0 34 34" fill="none" xmlns="http://www.w3.org/2000/svg">
<path fill-rule="evenodd" clip-rule="evenodd" d="M8.95455 2C5.11366 2 2 5.11366 2 8.95455V24.8636C2 28.7045 5.11366 31.8182 8.95455 31.8182H24.8636C28.7045 31.8182 31.8182 28.7045 31.8182 24.8636V8.95455C31.8182 5.11366 28.7045 2 24.8636 2H8.95455ZM0 8.95455C0 4.00909 4.00909 0 8.95455 0H24.8636C29.8091 0 33.8182 4.00909 33.8182 8.95455V24.8636C33.8182 29.8091 29.8091 33.8182 24.8636 33.8182H8.95455C4.00909 33.8182 0 29.8091 0 24.8636V8.95455ZM17.7645 11.5344C16.6485 11.3689 15.5088 11.5595 14.5074 12.0791C13.506 12.5987 12.694 13.4209 12.1867 14.4286C11.6795 15.4363 11.503 16.5783 11.6822 17.6921C11.8614 18.806 12.3873 19.835 13.1851 20.6327C13.9828 21.4304 15.0118 21.9563 16.1256 22.1355C17.2394 22.3148 18.3814 22.1382 19.3892 21.631C20.3969 21.1238 21.219 20.3117 21.7386 19.3104C22.2582 18.309 22.4488 17.1692 22.2833 16.0533C22.1145 14.9149 21.5841 13.8611 20.7704 13.0474C19.9567 12.2336 18.9028 11.7032 17.7645 11.5344ZM13.5863 10.3039C14.961 9.59054 16.5258 9.32885 18.0578 9.55604C19.6206 9.78778 21.0675 10.516 22.1846 11.6332C23.3017 12.7503 24.03 14.1971 24.2617 15.7599C24.4889 17.292 24.2272 18.8567 23.5139 20.2315C22.8005 21.6063 21.6718 22.7211 20.2883 23.4175C18.9049 24.1138 17.337 24.3562 15.8079 24.1101C14.2787 23.8641 12.866 23.1421 11.7708 22.0469C10.6756 20.9517 9.95367 19.5391 9.70761 18.0099C9.46154 16.4807 9.70392 14.9129 10.4003 13.5294C11.0966 12.1459 12.2115 11.0172 13.5863 10.3039ZM25.6591 7.15909C25.1068 7.15909 24.6591 7.60681 24.6591 8.15909C24.6591 8.71138 25.1068 9.15909 25.6591 9.15909H25.675C26.2273 9.15909 26.675 8.71138 26.675 8.15909C26.675 7.60681 26.2273 7.15909 25.675 7.15909H25.6591Z" fill="#C0A265"/>
</svg>
