<svg width="22" height="18" viewBox="0 0 22 18" fill="none" xmlns="http://www.w3.org/2000/svg">
<path fill-rule="evenodd" clip-rule="evenodd" d="M2.10666 2.55395C2.27204 2.22692 2.61212 2 3.00009 2H19.0001C19.388 2 19.7281 2.22692 19.8935 2.55395L11.0001 8.77934L2.10666 2.55395ZM0.00013487 2.9827C-2.65855e-05 2.99256 -4.31803e-05 3.00241 8.56267e-05 3.01225V15C8.56267e-05 16.6523 1.3478 18 3.00009 18H19.0001C20.6524 18 22.0001 16.6523 22.0001 15V3.01222M20.0001 4.92066V15C20.0001 15.5477 19.5478 16 19.0001 16H3.00009C2.45237 16 2.00009 15.5477 2.00009 15V4.92066L10.4266 10.8192C10.7709 11.0603 11.2292 11.0603 11.5735 10.8192L20.0001 4.92066ZM22 2.98402C21.9914 1.33904 20.647 0 19.0001 0H3.00009C1.35357 0 0.0095004 1.33832 0.00013487 2.9827" fill="white"/>
</svg>
