<svg width="31" height="31" viewBox="0 0 31 31" fill="none" xmlns="http://www.w3.org/2000/svg">
<path fill-rule="evenodd" clip-rule="evenodd" d="M30.6854 0.304136C30.6818 0.300373 30.6781 0.296635 30.6744 0.292921C30.6707 0.289207 30.6669 0.285527 30.6632 0.281881C30.4916 0.115604 30.2698 0.0193446 30.0395 0.00262494C29.9795 -0.00173525 29.9188 -0.000686101 29.8584 0.00594129C29.776 0.0149137 29.6945 0.0340967 29.616 0.0634901L0.669655 10.1947C0.282654 10.3302 0.0175501 10.6881 0.000836285 11.0978C-0.0158775 11.5075 0.219186 11.8859 0.593867 12.0524L13.2777 17.6896L18.9149 30.3734C19.0815 30.7481 19.4598 30.9832 19.8695 30.9665C20.2792 30.9498 20.6371 30.6847 20.7726 30.2977L30.9039 1.35117C30.933 1.27329 30.9521 1.1925 30.9612 1.11081C30.9938 0.81785 30.8955 0.520903 30.6854 0.304136ZM26.1616 3.3915L3.71108 11.2492L13.8138 15.7393L26.1616 3.3915ZM15.228 17.1535L27.5758 4.80571L19.7181 27.2562L15.228 17.1535Z" fill="#C0A265"/>
</svg>
